<mxfile host="Electron" modified="2024-03-25T15:10:28.157Z" agent="Mozilla/5.0 (X11; Linux x86_64) AppleWebKit/537.36 (KHTML, like Gecko) draw.io/24.1.0 Chrome/120.0.6099.109 Electron/28.1.0 Safari/537.36" etag="bo6BeSxrJAbaK4K8sGWv" version="24.1.0" type="device">
  <diagram name="Strona-1" id="W226d1LqbWSiyxDl8MiR">
    <mxGraphModel dx="743" dy="561" grid="1" gridSize="10" guides="1" tooltips="1" connect="1" arrows="1" fold="1" page="1" pageScale="1" pageWidth="827" pageHeight="1169" math="0" shadow="0">
      <root>
        <mxCell id="0" />
        <mxCell id="1" parent="0" />
        <mxCell id="KtOhmeODvqZaWWyiyWH8-1" value="Developer" style="shape=umlActor;verticalLabelPosition=bottom;verticalAlign=top;html=1;outlineConnect=0;fontSize=18;" vertex="1" parent="1">
          <mxGeometry x="40" y="280" width="30" height="60" as="geometry" />
        </mxCell>
        <mxCell id="KtOhmeODvqZaWWyiyWH8-2" value="" style="group" vertex="1" connectable="0" parent="1">
          <mxGeometry x="210" y="230" width="170" height="150" as="geometry" />
        </mxCell>
        <mxCell id="UlAa_cZhMgEmCZ3M0QiR-3" value="Host #2" style="rounded=0;whiteSpace=wrap;html=1;fontSize=18;horizontal=1;verticalAlign=top;" parent="KtOhmeODvqZaWWyiyWH8-2" vertex="1">
          <mxGeometry width="170" height="150" as="geometry" />
        </mxCell>
        <mxCell id="UlAa_cZhMgEmCZ3M0QiR-2" value="Radicle &lt;br style=&quot;font-size: 18px;&quot;&gt;Node #2" style="rounded=1;whiteSpace=wrap;html=1;fontSize=18;" parent="KtOhmeODvqZaWWyiyWH8-2" vertex="1">
          <mxGeometry x="25" y="60" width="120" height="60" as="geometry" />
        </mxCell>
        <mxCell id="KtOhmeODvqZaWWyiyWH8-3" value="Push&lt;br style=&quot;font-size: 15px;&quot;&gt;Code&lt;br style=&quot;font-size: 15px;&quot;&gt;Changes" style="endArrow=classic;html=1;rounded=0;entryX=-0.025;entryY=0.367;entryDx=0;entryDy=0;entryPerimeter=0;fontSize=15;" edge="1" parent="1" target="UlAa_cZhMgEmCZ3M0QiR-2">
          <mxGeometry width="50" height="50" relative="1" as="geometry">
            <mxPoint x="80" y="310" as="sourcePoint" />
            <mxPoint x="440" y="410" as="targetPoint" />
          </mxGeometry>
        </mxCell>
        <mxCell id="KtOhmeODvqZaWWyiyWH8-5" value="Host #1" style="rounded=0;whiteSpace=wrap;html=1;fontSize=18;horizontal=1;verticalAlign=top;" vertex="1" parent="1">
          <mxGeometry x="480" y="230" width="170" height="410" as="geometry" />
        </mxCell>
        <mxCell id="KtOhmeODvqZaWWyiyWH8-6" value="Radicle &lt;br style=&quot;font-size: 18px;&quot;&gt;Node #1" style="rounded=1;whiteSpace=wrap;html=1;fontSize=18;" vertex="1" parent="1">
          <mxGeometry x="505" y="290" width="120" height="60" as="geometry" />
        </mxCell>
        <mxCell id="KtOhmeODvqZaWWyiyWH8-7" value="Radicle &lt;br style=&quot;font-size: 18px;&quot;&gt;CI Broker" style="rounded=1;whiteSpace=wrap;html=1;fontSize=18;" vertex="1" parent="1">
          <mxGeometry x="505" y="410" width="120" height="60" as="geometry" />
        </mxCell>
        <mxCell id="KtOhmeODvqZaWWyiyWH8-8" value="Gossip&lt;div&gt;Protocol&lt;/div&gt;" style="endArrow=classic;html=1;rounded=0;entryX=0;entryY=0.5;entryDx=0;entryDy=0;fontSize=15;exitX=1;exitY=0.5;exitDx=0;exitDy=0;" edge="1" parent="1" source="UlAa_cZhMgEmCZ3M0QiR-2" target="KtOhmeODvqZaWWyiyWH8-6">
          <mxGeometry width="50" height="50" relative="1" as="geometry">
            <mxPoint x="90" y="320" as="sourcePoint" />
            <mxPoint x="242" y="322" as="targetPoint" />
          </mxGeometry>
        </mxCell>
        <mxCell id="KtOhmeODvqZaWWyiyWH8-9" value="Node Events" style="endArrow=classic;html=1;rounded=0;exitX=0.5;exitY=1;exitDx=0;exitDy=0;entryX=0.5;entryY=0;entryDx=0;entryDy=0;fontSize=15;" edge="1" parent="1" source="KtOhmeODvqZaWWyiyWH8-6" target="KtOhmeODvqZaWWyiyWH8-7">
          <mxGeometry width="50" height="50" relative="1" as="geometry">
            <mxPoint x="320" y="470" as="sourcePoint" />
            <mxPoint x="370" y="420" as="targetPoint" />
          </mxGeometry>
        </mxCell>
        <mxCell id="KtOhmeODvqZaWWyiyWH8-10" value="Radicle &lt;br style=&quot;font-size: 18px;&quot;&gt;Webhooks Adapter" style="rounded=1;whiteSpace=wrap;html=1;fontSize=18;" vertex="1" parent="1">
          <mxGeometry x="505" y="530" width="120" height="80" as="geometry" />
        </mxCell>
        <mxCell id="KtOhmeODvqZaWWyiyWH8-11" value="Process Invoke" style="endArrow=classic;html=1;rounded=0;exitX=0.5;exitY=1;exitDx=0;exitDy=0;entryX=0.5;entryY=0;entryDx=0;entryDy=0;fontSize=15;" edge="1" parent="1">
          <mxGeometry width="50" height="50" relative="1" as="geometry">
            <mxPoint x="564.5" y="470" as="sourcePoint" />
            <mxPoint x="564.5" y="530" as="targetPoint" />
          </mxGeometry>
        </mxCell>
        <mxCell id="KtOhmeODvqZaWWyiyWH8-14" value="" style="group" vertex="1" connectable="0" parent="1">
          <mxGeometry x="740" y="230" width="170" height="170" as="geometry" />
        </mxCell>
        <mxCell id="KtOhmeODvqZaWWyiyWH8-12" value="Host #3" style="rounded=0;whiteSpace=wrap;html=1;fontSize=18;horizontal=1;verticalAlign=top;" vertex="1" parent="KtOhmeODvqZaWWyiyWH8-14">
          <mxGeometry width="170" height="170" as="geometry" />
        </mxCell>
        <mxCell id="KtOhmeODvqZaWWyiyWH8-13" value="Kraken CI&lt;br&gt;Server" style="rounded=1;whiteSpace=wrap;html=1;fontSize=18;" vertex="1" parent="KtOhmeODvqZaWWyiyWH8-14">
          <mxGeometry x="25" y="60" width="120" height="60" as="geometry" />
        </mxCell>
        <mxCell id="KtOhmeODvqZaWWyiyWH8-15" value="" style="endArrow=classic;html=1;rounded=0;exitX=1;exitY=0.5;exitDx=0;exitDy=0;entryX=0.5;entryY=1;entryDx=0;entryDy=0;fontSize=15;" edge="1" parent="1" source="KtOhmeODvqZaWWyiyWH8-10" target="KtOhmeODvqZaWWyiyWH8-13">
          <mxGeometry width="50" height="50" relative="1" as="geometry">
            <mxPoint x="770" y="510" as="sourcePoint" />
            <mxPoint x="820" y="460" as="targetPoint" />
            <Array as="points">
              <mxPoint x="825" y="570" />
            </Array>
          </mxGeometry>
        </mxCell>
        <mxCell id="KtOhmeODvqZaWWyiyWH8-16" value="Webhook Requests" style="edgeLabel;html=1;align=center;verticalAlign=middle;resizable=0;points=[];fontSize=15;" vertex="1" connectable="0" parent="KtOhmeODvqZaWWyiyWH8-15">
          <mxGeometry x="-0.16" y="4" relative="1" as="geometry">
            <mxPoint as="offset" />
          </mxGeometry>
        </mxCell>
      </root>
    </mxGraphModel>
  </diagram>
</mxfile>
